<svg width="188" height="40" viewBox="0 0 188 40" fill="none" xmlns="http://www.w3.org/2000/svg">
<g clip-path="url(#clip0)">
<path d="M37.1954 0V18.9173H29.5945V10.9173L26.9067 13.3835L22.3404 17.594L20.8664 18.9173H16.5891L15.1151 17.594L10.4621 13.3835L7.60092 10.8271V18.9173H0V0H7.60092L18.7566 10.0752L29.5945 0H37.1954Z" fill="white"/>
<path d="M28.3517 22.8271H9.91299C8.17894 22.8271 7.60092 22.2256 7.60092 21.5338H0C0 21.594 0 21.6241 0 21.6842C0 26.0451 2.91899 29.1128 8.52575 29.1128H27.5425C29.0742 29.1128 29.6523 29.6842 29.6523 30.406V31.7895C29.6523 32.5413 29.0164 33.3534 26.2131 33.3534H15.9822H11.4736C9.04596 33.3534 8.12114 32.4812 7.97663 31.4586H0.520215C0.520215 33.8647 1.70515 40 11.2713 40H15.9822H26.1842C34.2764 39.9699 37.0509 35.9699 37.1954 31.7895V30.406C37.1954 30.2857 37.1954 30.1353 37.1954 30.015C37.1954 25.6541 34.2186 22.8271 28.3517 22.8271Z" fill="white"/>
<path d="M76.7027 17.1729H71.4428V5.02254H71.2982L66.3562 17.1729H62.2234L57.2235 4.87216H57.079V17.1729H52.0503V-1.52588e-05H60.3448L64.2753 10.2857H64.4198L68.2348 -1.52588e-05H76.7027V17.1729Z" fill="white"/>
<path d="M84.6504 6.58645H96.731V10.2255H84.6504V13.2331H97.4824V17.1729H79.3616V-1.52588e-05H97.2223V3.93983H84.6215V6.58645H84.6504Z" fill="white"/>
<path d="M119.042 4.39096H111.702V17.1729H106.442V4.39096H99.1008V-1.52588e-05H119.042V4.39096Z" fill="white"/>
<path d="M132.915 14.4661H123.609L122.337 17.1729H116.47L124.938 -1.52588e-05H131.643L140.025 17.1729H134.187L132.915 14.4661ZM128.175 4.51126C128.175 4.51126 127.164 6.79698 125.459 10.5263H131.065C129.331 6.79698 128.32 4.51126 128.32 4.51126H128.175Z" fill="white"/>
<path d="M61.2986 25.3534C58.5531 25.3534 57.6282 25.9549 57.6282 26.9474C57.6282 27.7895 58.293 28.1203 59.7958 28.2406L66.3563 28.8421C70.1134 29.1729 72.1943 30.6767 72.1943 34.1353C72.1943 38.9173 68.4083 40 61.6166 40C55.1139 40 51.3857 38.8271 51.1833 33.7143H57.2814C57.6571 35.8195 59.2178 36.2406 61.8767 36.2406C64.7956 36.2406 65.9806 35.6992 65.9806 34.5263C65.9806 33.4737 65.0847 33.1128 63.8419 32.9925L57.4837 32.3308C53.7844 31.9398 51.588 30.6767 51.588 27.2481C51.588 22.9173 55.4896 21.6842 61.501 21.6842C67.4834 21.6842 71.4428 22.8872 71.5873 27.4286H65.5182C65.2581 25.8947 63.813 25.3534 61.2986 25.3534Z" fill="white"/>
<path d="M96.6733 30.8571C96.6733 37.1128 92.5116 40 85.1997 40C77.8878 40 73.7261 37.1128 73.7261 30.8571C73.7261 24.6015 77.8878 21.7143 85.1997 21.7143C92.5116 21.6842 96.6733 24.5714 96.6733 30.8571ZM90.8932 30.8571C90.8932 27.7895 89.1013 26.0451 85.2286 26.0451C81.3559 26.0451 79.564 27.8195 79.564 30.8571C79.564 33.9248 81.3559 35.6692 85.2286 35.6692C89.1013 35.6692 90.8932 33.8947 90.8932 30.8571Z" fill="white"/>
<path d="M109.563 26.015C105.922 26.015 104.13 27.7895 104.13 30.8271C104.13 33.8947 105.922 35.6391 109.563 35.6391C112.656 35.6391 114.043 34.1053 114.216 32.3308H120.574C120.459 37.2932 116.615 39.9699 109.592 39.9699C102.511 39.9699 98.3496 37.0827 98.3496 30.8271C98.3496 24.5714 102.511 21.6842 109.592 21.6842C116.615 21.6842 120.401 24.3609 120.545 28.9624H114.245C114.072 27.6391 112.656 26.015 109.563 26.015Z" fill="white"/>
<path d="M133.435 26.015C129.794 26.015 128.002 27.7895 128.002 30.8271C128.002 33.8947 129.794 35.6391 133.435 35.6391C136.528 35.6391 137.915 34.1053 138.088 32.3308H144.446C144.331 37.2932 140.487 39.9699 133.464 39.9699C126.383 39.9699 122.222 37.0827 122.222 30.8271C122.222 24.5714 126.383 21.6842 133.464 21.6842C140.487 21.6842 144.273 24.3609 144.418 28.9624H138.117C137.944 27.6391 136.528 26.015 133.435 26.015Z" fill="white"/>
<path d="M151.874 28.8421H163.954V32.4812H151.874V35.4887H164.706V39.4286H146.585V22.2556H164.446V26.1955H151.845V28.8421H151.874Z" fill="white"/>
<path d="M188 39.4286H181.902L178.723 33.9248H172.336V39.4286H167.047V22.2556H181.093C185.775 22.2556 187.566 24.1804 187.566 27.9098C187.566 31.0376 186.064 32.2406 184.012 32.7519V32.9624L188 39.4286ZM181.757 28.2707C181.757 27.0977 181.208 26.5263 179.821 26.5263H172.307V30.015H179.821C181.208 30.015 181.757 29.4436 181.757 28.2707Z" fill="white"/>
</g>
<defs>
<clipPath id="clip0">
<rect width="188" height="40" fill="white"/>
</clipPath>
</defs>
</svg>
