<svg width="839" height="303" viewBox="0 0 839 303" fill="none" xmlns="http://www.w3.org/2000/svg">
  <path d="M47.0456 123.017C47.0456 115.279 53.9515 110.635 64.1913 110.635C79.6702 110.635 88.9575 119.48 93.9583 125.45L122.773 105.329C114.914 93.1676 97.5303 77.9111 66.0964 77.9111C32.2811 77.9111 5.84807 94.9365 5.84807 123.46C5.84807 178.295 84.1947 169.008 84.1947 192.667C84.1947 201.511 76.3363 206.597 63.9532 206.597C45.1405 206.597 34.1862 198.637 25.8515 189.792L0.132812 211.019C8.94384 224.285 29.1854 239.542 62.0481 239.542C97.7685 239.542 125.868 220.748 125.868 190.677C125.63 135.621 47.0456 147.339 47.0456 123.017Z" fill="white" />
  <path d="M439.017 97.8106C434.254 91.8407 417.347 77.6897 389.485 77.6897C342.334 77.6897 308.757 111.298 308.757 158.616C308.757 205.933 340.191 239.321 388.056 239.321C416.87 239.321 433.064 224.064 436.636 219.642V237.773C436.636 261.653 414.727 268.286 390.914 268.286C368.053 268.286 349.002 260.326 343.763 257.673L330.427 288.849C345.43 296.588 368.529 303 391.39 303C440.208 303 480.453 284.427 480.453 227.16V81.6697H439.255V97.8106H439.017ZM395.2 203.501C370.434 203.501 352.812 185.591 352.812 158.395C352.812 131.419 370.196 113.731 394.962 113.731C420.681 113.731 437.826 132.304 437.826 158.395C437.588 185.812 420.442 203.501 395.2 203.501Z" fill="white" />
  <path d="M689.059 81.6698H645.242V235.562H689.059V81.6698Z" fill="white" />
  <path d="M759.31 123.017C759.31 115.279 766.216 110.635 776.456 110.635C791.935 110.635 801.222 119.48 806.223 125.45L835.037 105.329C827.179 93.1676 809.795 77.9111 778.361 77.9111C744.546 77.9111 718.113 94.9365 718.113 123.46C718.113 178.295 796.459 169.008 796.459 192.667C796.459 201.511 788.601 206.597 776.218 206.597C757.405 206.597 746.451 198.637 738.116 189.792L712.397 211.019C721.208 224.285 741.45 239.542 774.313 239.542C810.033 239.542 838.133 220.748 838.133 190.677C837.895 135.621 759.31 147.339 759.31 123.017Z" fill="white" />
  <path d="M672.621 50.5237C686.061 47.5772 694.383 35.0727 691.209 22.5943C688.036 10.1158 674.569 2.38863 661.129 5.33514C647.69 8.28166 639.367 20.7861 642.541 33.2646C645.714 45.743 659.182 53.4702 672.621 50.5237Z" fill="white" />
  <path d="M555.942 104.002V81.6698H513.077V235.562H556.894V168.566C556.894 134.736 577.612 110.193 620.953 121.248V80.122C588.328 71.2777 563.8 84.102 555.942 104.002Z" fill="white" />
  <path d="M258.273 96.7052L176.83 293.935H203.263C213.503 293.935 222.79 287.965 226.6 279.12L308.043 81.8909H281.61C271.37 81.6698 262.083 87.6397 258.273 96.7052Z" fill="white" />
  <path d="M220.647 184.707L178.258 81.6698H134.441L177.068 184.707H220.647Z" fill="white" />
</svg>